<?xml version="1.0" encoding="UTF-8" standalone="no"?>
<svg
   id="svg4006"
   width="542.909"
   height="700"
   version="1.1"
   viewBox="0 0 271.4545 350"
   sodipodi:docname="readthedocs-light.svg"
   inkscape:version="1.4 (e7c3feb100, 2024-10-09)"
   xmlns:inkscape="http://www.inkscape.org/namespaces/inkscape"
   xmlns:sodipodi="http://sodipodi.sourceforge.net/DTD/sodipodi-0.dtd"
   xmlns="http://www.w3.org/2000/svg"
   xmlns:svg="http://www.w3.org/2000/svg"
   xmlns:rdf="http://www.w3.org/1999/02/22-rdf-syntax-ns#"
   xmlns:cc="http://creativecommons.org/ns#"
   xmlns:dc="http://purl.org/dc/elements/1.1/">
  <defs
     id="defs1" />
  <sodipodi:namedview
     id="namedview1"
     pagecolor="#ffffff"
     bordercolor="#000000"
     borderopacity="0.25"
     inkscape:showpageshadow="2"
     inkscape:pageopacity="0.0"
     inkscape:pagecheckerboard="0"
     inkscape:deskcolor="#d1d1d1"
     inkscape:zoom="1.0430556"
     inkscape:cx="360"
     inkscape:cy="360"
     inkscape:window-width="1920"
     inkscape:window-height="980"
     inkscape:window-x="0"
     inkscape:window-y="0"
     inkscape:window-maximized="1"
     inkscape:current-layer="svg4006" />
  <metadata
     id="metadata4011">
    <rdf:RDF>
      <cc:Work
         rdf:about="">
        <dc:format>image/svg+xml</dc:format>
        <dc:type
           rdf:resource="http://purl.org/dc/dcmitype/StillImage" />
      </cc:Work>
    </rdf:RDF>
  </metadata>
  <g
     id="layer1"
     transform="matrix(1.1042106,0,0,1.1042106,-485.73026,-319.67637)">
    <g
       id="g3857"
       transform="matrix(4.7091,0,0,4.7091,863.84,638.13)"
       fill="#fafafa">
      <path
         id="path3929-8"
         d="m -67.281,-41.594 a 1.6144,1.6144 0 0 0 -0.21875,3.1562 c 0,0 3.9317,1.301 10.625,1.8438 5.3747,0.43579 11.469,-0.375 11.469,-0.375 a 1.6144,1.6144 0 1 0 -0.40625,-3.1875 c 0,0 -5.9616,0.73707 -10.812,0.34375 -6.3882,-0.51796 -9.875,-1.6875 -9.875,-1.6875 a 1.6144,1.6144 0 0 0 -0.78125,-0.09375 z m 0,-8 a 1.6144,1.6144 0 0 0 -0.21875,3.1562 c 0,0 3.9317,1.301 10.625,1.8438 5.3747,0.43579 11.469,-0.375 11.469,-0.375 a 1.6144,1.6144 0 1 0 -0.40625,-3.1875 c 0,0 -5.9616,0.73707 -10.812,0.34375 -6.3882,-0.51796 -9.875,-1.6875 -9.875,-1.6875 a 1.6144,1.6144 0 0 0 -0.78125,-0.09375 z m 0,-8 a 1.6144,1.6144 0 0 0 -0.21875,3.1562 c 0,0 3.9317,1.301 10.625,1.8438 5.3747,0.43579 11.469,-0.375 11.469,-0.375 a 1.6144,1.6144 0 1 0 -0.40625,-3.1875 c 0,0 -5.9616,0.73707 -10.812,0.34375 -6.3882,-0.51796 -9.875,-1.6875 -9.875,-1.6875 a 1.6144,1.6144 0 0 0 -0.78125,-0.09375 z m 0,-8 a 1.6144,1.6144 0 0 0 -0.21875,3.1562 c 0,0 3.9317,1.301 10.625,1.8438 5.3747,0.43579 11.469,-0.375 11.469,-0.375 a 1.6144,1.6144 0 1 0 -0.40625,-3.1875 c 0,0 -5.9616,0.73707 -10.812,0.34375 -6.3882,-0.51796 -9.875,-1.6875 -9.875,-1.6875 a 1.6144,1.6144 0 0 0 -0.78125,-0.09375 z m -11.208,-8.437 c -8.4072,0.05606 -11.539,2.6451 -11.539,2.6451 v 62.784 c 0,0 3.0586,-2.6415 12.906,-2.2381 9.8474,0.4034 11.878,3.8553 23.98,4.0984 12.102,0.2431 15.144,-1.8603 15.144,-1.8603 l 0.1744,-64.005 c 0,0 -5.4461,1.5414 -16.045,1.6277 -10.599,0.08634 -13.146,-2.6961 -22.875,-3.0229 -0.60808,-0.02042 -1.1835,-0.0328 -1.744,-0.02907 z m 7.0341,4.0984 c 0,0 5.0944,1.684 14.504,2.1509 7.953,0.39462 15.928,-0.7848 15.928,-0.7848 v 56.883 c 0,0 -4.0367,2.1159 -14.126,1.3952 -7.8193,-0.5585 -16.423,-3.5171 -16.423,-3.5171 l 0.11627,-56.128 z m -4.9122,1.4824 a 1.62775,1.62775 0 0 1 0,3.2555 c 0,0 -2.635,0.01353 -4.2437,0.1744 -2.701,0.2701 -4.5344,1.2499 -4.5344,1.2499 a 1.6252088,1.6252088 0 1 1 -1.5115,-2.8776 c 0,0 2.3916,-1.2652 5.7261,-1.5987 1.9268,-0.1927 4.5635,-0.20347 4.5635,-0.20347 z m -1.5696,8.0224 c 0.89978,-0.02279 1.5696,0 1.5696,0 a 1.625,1.625 0 0 1 0,3.2264 c 0,0 -2.635,0.01352 -4.2437,0.1744 -2.701,0.2701 -4.5344,1.2499 -4.5344,1.2499 a 1.6252088,1.6252088 0 0 1 -1.5115,-2.8776 c 0,0 2.3916,-1.2652 5.7261,-1.5987 0.9634,-0.09635 2.0941,-0.15161 2.9939,-0.1744 z m 1.5696,7.9933 a 1.62775,1.62775 0 0 1 0,3.2555 c 0,0 -2.635,-0.01554 -4.2437,0.14533 -2.701,0.2701 -4.5344,1.2499 -4.5344,1.2499 a 1.6252088,1.6252088 0 0 1 -1.5115,-2.8776 c 0,0 2.3916,-1.2652 5.7261,-1.5987 1.9268,-0.1927 4.5635,-0.1744 4.5635,-0.1744 z"
         color="#000000"
         fill="#fafafa"
         style="text-indent:0;text-transform:none" />
    </g>
  </g>
</svg>
