<?xml version="1.0" encoding="UTF-8" standalone="no"?>
<svg
   viewBox="0 0 300 300"
   version="1.1"
   id="svg2"
   sodipodi:docname="sphinx-logo copy.svg"
   width="300"
   height="300"
   inkscape:version="1.4 (e7c3feb100, 2024-10-09)"
   xmlns:inkscape="http://www.inkscape.org/namespaces/inkscape"
   xmlns:sodipodi="http://sodipodi.sourceforge.net/DTD/sodipodi-0.dtd"
   xmlns="http://www.w3.org/2000/svg"
   xmlns:svg="http://www.w3.org/2000/svg">
  <defs
     id="defs2" />
  <sodipodi:namedview
     id="namedview2"
     pagecolor="#ffffff"
     bordercolor="#000000"
     borderopacity="0.25"
     inkscape:showpageshadow="2"
     inkscape:pageopacity="0.0"
     inkscape:pagecheckerboard="0"
     inkscape:deskcolor="#d1d1d1"
     showgrid="true"
     inkscape:zoom="3.3526786"
     inkscape:cx="175.53129"
     inkscape:cy="174.63648"
     inkscape:window-width="1920"
     inkscape:window-height="980"
     inkscape:window-x="0"
     inkscape:window-y="0"
     inkscape:window-maximized="1"
     inkscape:current-layer="layer1">
    <inkscape:grid
       id="grid2"
       units="px"
       originx="0"
       originy="0"
       spacingx="10"
       spacingy="10"
       empcolor="#0099e5"
       empopacity="0.30196078"
       color="#0099e5"
       opacity="0.14901961"
       empspacing="5"
       enabled="true"
       visible="true" />
  </sodipodi:namedview>
  <g
     inkscape:groupmode="layer"
     id="layer1"
     inkscape:label="Layer">
    <path
       id="rect2"
       style="fill:#104f74;stroke-width:225.811"
       inkscape:label="Base"
       d="m 60,0 h 180 c 33.24,0 60,26.76 60,60 v 180 c 0,33.24 -26.76,60 -60,60 H 60 C 26.76,300 0,273.24 0,240 V 60 C 0,26.76 26.76,0 60,0 Z" />
    <g
       id="g2"
       inkscape:label="Icon"
       transform="matrix(22.009122,0,0,22.009122,39.908781,72.968073)">
      <path
         d="M 8.12,3.27 C 8.57,2.95 9.18,2.81 9.9,2.54 L 9.59,1.84 C 8.31,2.07 7.16,1.31 5.91,1.14 4,0.75 2.24,1.9 0.36,2.04 V 2.8 C 2.23,3.21 4,4.06 5.96,3.82 4.75,5.03 3.12,6.46 1.27,5.89 0.63,5.77 0.35,4.87 0.96,4.6 1.23,5.64 2.53,4.9 1.96,4.08 1.57,3.6 0.54,3.82 0.24,4.3 -0.63,5.95 1.08,6.86 2.55,6.62 4.41,6.37 5.84,4.91 7.08,3.6 7.06,4.21 7.26,5.56 6.67,6.1 L 6.68,7 C 7.11,6.66 7.48,5.93 7.6,5.44 7.76,4.81 7.64,4.42 7.7,3.91 7.75,3.68 7.8,3.5 8.12,3.27 Z M 1.9,2.39 C 2.67,2.16 3.48,1.81 4.29,1.73 c -0.42,1.38 1.81,1.54 1.56,0 0.64,0.16 1,0.3 1.94,0.7 C 5.73,3.45 3.74,2.99 1.9,2.39 Z"
         id="path1"
         style="fill:#f9f9f1;fill-opacity:1" />
      <path
         d="M 0.36,1.81 V 1.01 C 0.59,1.01 1.2,0.83 1.8,0.66 2.8,0.36 4.05,0 4.95,0 5.95,0 7,0.34 7.77,0.58 L 8.68,0.83 C 9.3,0.9 9.66,0.75 9.66,0.75 L 10,1.48 C 9.94,1.5 9.44,1.72 8.59,1.63 8.32,1.6 7.97,1.49 7.53,1.34 6.77,1.1 5.82,0.8 4.95,0.8 4.16,0.8 2.98,1.15 2.03,1.43 1.29,1.64 0.71,1.81 0.36,1.81 Z"
         id="path2"
         style="fill:#f9f9f1;fill-opacity:1" />
    </g>
  </g>
</svg>
